<mxfile host="app.diagrams.net" modified="2022-05-23T06:01:21.826Z" agent="5.0 (Windows NT 10.0; Win64; x64) AppleWebKit/537.36 (KHTML, like Gecko) Chrome/101.0.4951.54 Safari/537.36" etag="kvKHN-hyk9yKwui0KJWK" version="18.1.1" type="github">
  <diagram id="cSh2xJzqp1_I8XY5iY7u" name="Page-1">
    <mxGraphModel dx="870" dy="526" grid="1" gridSize="10" guides="1" tooltips="1" connect="1" arrows="1" fold="1" page="1" pageScale="1" pageWidth="827" pageHeight="1169" math="0" shadow="0">
      <root>
        <mxCell id="0" />
        <mxCell id="1" parent="0" />
        <mxCell id="7YoZn7pYE3jpKXp1k2qh-9" style="edgeStyle=orthogonalEdgeStyle;rounded=0;orthogonalLoop=1;jettySize=auto;html=1;exitX=1;exitY=0.5;exitDx=0;exitDy=0;entryX=0;entryY=0.5;entryDx=0;entryDy=0;fontSize=20;" edge="1" parent="1" source="7YoZn7pYE3jpKXp1k2qh-1" target="7YoZn7pYE3jpKXp1k2qh-2">
          <mxGeometry relative="1" as="geometry" />
        </mxCell>
        <mxCell id="7YoZn7pYE3jpKXp1k2qh-1" value="&lt;font style=&quot;font-size: 20px;&quot;&gt;Raw Text&lt;/font&gt;" style="rounded=0;whiteSpace=wrap;html=1;" vertex="1" parent="1">
          <mxGeometry x="120" y="130" width="120" height="60" as="geometry" />
        </mxCell>
        <mxCell id="7YoZn7pYE3jpKXp1k2qh-10" style="edgeStyle=orthogonalEdgeStyle;rounded=0;orthogonalLoop=1;jettySize=auto;html=1;exitX=0.5;exitY=1;exitDx=0;exitDy=0;entryX=0.5;entryY=0;entryDx=0;entryDy=0;fontSize=20;" edge="1" parent="1" source="7YoZn7pYE3jpKXp1k2qh-2" target="7YoZn7pYE3jpKXp1k2qh-4">
          <mxGeometry relative="1" as="geometry" />
        </mxCell>
        <mxCell id="7YoZn7pYE3jpKXp1k2qh-2" value="Tokenization" style="rounded=0;whiteSpace=wrap;html=1;fontSize=20;" vertex="1" parent="1">
          <mxGeometry x="280" y="130" width="120" height="60" as="geometry" />
        </mxCell>
        <mxCell id="7YoZn7pYE3jpKXp1k2qh-12" style="edgeStyle=orthogonalEdgeStyle;rounded=0;orthogonalLoop=1;jettySize=auto;html=1;exitX=1;exitY=0.5;exitDx=0;exitDy=0;entryX=0;entryY=0.5;entryDx=0;entryDy=0;fontSize=20;" edge="1" parent="1" source="7YoZn7pYE3jpKXp1k2qh-3" target="7YoZn7pYE3jpKXp1k2qh-5">
          <mxGeometry relative="1" as="geometry" />
        </mxCell>
        <mxCell id="7YoZn7pYE3jpKXp1k2qh-3" value="Stopwords" style="rounded=0;whiteSpace=wrap;html=1;fontSize=20;" vertex="1" parent="1">
          <mxGeometry x="280" y="360" width="120" height="60" as="geometry" />
        </mxCell>
        <mxCell id="7YoZn7pYE3jpKXp1k2qh-11" style="edgeStyle=orthogonalEdgeStyle;rounded=0;orthogonalLoop=1;jettySize=auto;html=1;exitX=0.5;exitY=1;exitDx=0;exitDy=0;entryX=0.5;entryY=0;entryDx=0;entryDy=0;fontSize=20;" edge="1" parent="1" source="7YoZn7pYE3jpKXp1k2qh-4" target="7YoZn7pYE3jpKXp1k2qh-3">
          <mxGeometry relative="1" as="geometry" />
        </mxCell>
        <mxCell id="7YoZn7pYE3jpKXp1k2qh-4" value="POS-tagging" style="rounded=0;whiteSpace=wrap;html=1;fontSize=20;" vertex="1" parent="1">
          <mxGeometry x="280" y="240" width="120" height="60" as="geometry" />
        </mxCell>
        <mxCell id="7YoZn7pYE3jpKXp1k2qh-13" style="edgeStyle=orthogonalEdgeStyle;rounded=0;orthogonalLoop=1;jettySize=auto;html=1;exitX=0.5;exitY=0;exitDx=0;exitDy=0;entryX=0.46;entryY=1.025;entryDx=0;entryDy=0;entryPerimeter=0;fontSize=20;" edge="1" parent="1" source="7YoZn7pYE3jpKXp1k2qh-5" target="7YoZn7pYE3jpKXp1k2qh-6">
          <mxGeometry relative="1" as="geometry" />
        </mxCell>
        <mxCell id="7YoZn7pYE3jpKXp1k2qh-5" value="Stemming/&lt;br&gt;Lemmatization" style="rounded=0;whiteSpace=wrap;html=1;fontSize=20;" vertex="1" parent="1">
          <mxGeometry x="460" y="360" width="140" height="60" as="geometry" />
        </mxCell>
        <mxCell id="7YoZn7pYE3jpKXp1k2qh-14" style="edgeStyle=orthogonalEdgeStyle;rounded=0;orthogonalLoop=1;jettySize=auto;html=1;exitX=0.5;exitY=0;exitDx=0;exitDy=0;fontSize=20;entryX=0.45;entryY=1.008;entryDx=0;entryDy=0;entryPerimeter=0;" edge="1" parent="1" source="7YoZn7pYE3jpKXp1k2qh-6" target="7YoZn7pYE3jpKXp1k2qh-7">
          <mxGeometry relative="1" as="geometry">
            <mxPoint x="535" y="190" as="targetPoint" />
          </mxGeometry>
        </mxCell>
        <mxCell id="7YoZn7pYE3jpKXp1k2qh-6" value="Further Preporcessing" style="rounded=0;whiteSpace=wrap;html=1;fontSize=20;" vertex="1" parent="1">
          <mxGeometry x="460" y="240" width="150" height="60" as="geometry" />
        </mxCell>
        <mxCell id="7YoZn7pYE3jpKXp1k2qh-15" style="edgeStyle=orthogonalEdgeStyle;rounded=0;orthogonalLoop=1;jettySize=auto;html=1;exitX=1;exitY=0.5;exitDx=0;exitDy=0;entryX=0;entryY=0.5;entryDx=0;entryDy=0;fontSize=20;" edge="1" parent="1" source="7YoZn7pYE3jpKXp1k2qh-7" target="7YoZn7pYE3jpKXp1k2qh-8">
          <mxGeometry relative="1" as="geometry" />
        </mxCell>
        <mxCell id="7YoZn7pYE3jpKXp1k2qh-7" value="Feature Engineering" style="rounded=0;whiteSpace=wrap;html=1;fontSize=20;" vertex="1" parent="1">
          <mxGeometry x="480" y="120" width="120" height="60" as="geometry" />
        </mxCell>
        <mxCell id="7YoZn7pYE3jpKXp1k2qh-8" value="ML Model" style="rounded=0;whiteSpace=wrap;html=1;fontSize=20;" vertex="1" parent="1">
          <mxGeometry x="640" y="120" width="120" height="60" as="geometry" />
        </mxCell>
      </root>
    </mxGraphModel>
  </diagram>
</mxfile>
